# xmcd
#
# Track frame offsets:
#	150
#	15337
#	31613
#	48869
#	60369
#	74512
#	94204
#	105301
#	114983
#	132021
#	156365
#	169633
#	190527
#	204336
#	213807
#	229893
#	245117
#	263244
#	274816
#	293699
#
# Disc length: 4042 seconds
#
# Revision: 0
# Processed by: cddbd v1.5.2PL0 Copyright (c) Steve Scherf et al.
# Submitted via: audiograbber 1.83.01
#
DISCID=070fc814
DTITLE=Diverse - The Best Of Country and Irish - CD3
DYEAR=2012
DGENRE=Country
TTITLE0=Philomena Begley - Sentimental Ol' You
TTITLE1=Daniel O'Donnell - Galway Bay
TTITLE2=Seán O'Farrell - Connemara Cradle SOng
TTITLE3=Seán Wilson - Fiddlers Green
TTITLE4=Susan McCann - Someone Is Looking For Someone Like You
TTITLE5=The Duets (Tommy and Kathleen Moran) - An Irish Harvest Day
TTITLE6=Cotton Mill Boys - Make The World Go Away
TTITLE7=Brendan Quinn - Help Me Make It Through The Night
TTITLE8=Margo - Old Flames
TTITLE9=Donna Taggart - Grace
TTITLE10=Tracy And The Grassroots - I Fall To Pieces
TTITLE11=Seán Dunphy - My Heart Is In Ireland
TTITLE12=Philomena Begley - Cliffs Of Dooneen
TTITLE13=Gene Stuart - Before The Next Teardrop Falls
TTITLE14=Susan McCann - Patches In Heaven
TTITLE15=The Clancy Brothers - A Jug Of Punch
TTITLE16=The Duets (Tommy and Kathleen Moran) - The Story I Tell You
TTITLE17=Tracy And The Grassroots - Paper Roses
TTITLE18=Seán Dunphy - Sunday Morning Coming Down
TTITLE19=Cotton Mill Boys - Ashes Of Love
EXTD=
EXTT0=
EXTT1=
EXTT2=
EXTT3=
EXTT4=
EXTT5=
EXTT6=
EXTT7=
EXTT8=
EXTT9=
EXTT10=
EXTT11=
EXTT12=
EXTT13=
EXTT14=
EXTT15=
EXTT16=
EXTT17=
EXTT18=
EXTT19=
PLAYORDER=
